<svg width="90" height="80" viewBox="0 0 90 80" fill="none" xmlns="http://www.w3.org/2000/svg">
<g clip-path="url(#clip0)">
<path d="M47.4697 59.9555L88.9822 23.4017C90.3416 22.204 90.3393 20.265 88.9752 19.0694C87.6113 17.8746 85.402 17.8777 84.0416 19.0755L44.9999 53.4536L5.9583 19.0743C4.59776 17.8767 2.38977 17.8736 1.02572 19.0681C0.341934 19.6675 3.05176e-05 20.4527 3.05176e-05 21.2379C3.05176e-05 22.0211 0.339645 22.8032 1.01868 23.4015L42.5301 59.9555C43.1837 60.5323 44.0731 60.856 44.9999 60.856C45.9266 60.856 46.815 60.5314 47.4697 59.9555Z" fill="white" fill-opacity="0.44"/>
</g>
<defs>
<clipPath id="clip0">
<rect width="79.0303" height="90" fill="white" transform="translate(90) rotate(90)"/>
</clipPath>
</defs>
</svg>
