<svg width="47" height="49" viewBox="0 0 47 49" fill="none" xmlns="http://www.w3.org/2000/svg">
<g clip-path="url(#clip0)">
<path d="M45.0026 28.645C46.3845 16.507 44.3386 8.8439 40.6484 5.3779L40.6504 5.37589C34.6943 -0.543094 14.5795 -1.41916 7.45385 5.64173C4.25386 9.09564 3.12672 14.1647 3.0032 20.4402C2.87968 26.7177 2.733 38.4771 13.2343 41.6672H13.2439L13.2343 46.5389C13.2343 46.5389 13.1629 48.5126 14.3711 48.9093C15.753 49.3765 16.3783 48.4602 20.6765 43.1031C27.8639 43.7536 33.3838 42.2633 34.0111 42.0458C35.4624 41.5383 43.6747 40.4044 45.0026 28.645ZM21.3848 39.6754C21.3848 39.6754 16.8357 45.5944 15.421 47.131C14.9578 47.6305 14.4502 47.5841 14.4579 46.5933C14.4579 45.9428 14.4927 38.5053 14.4927 38.5053C5.58944 35.8428 6.11441 25.8295 6.21091 20.5912C6.30741 15.351 7.2261 11.0592 9.93587 8.16923C16.1872 2.05288 33.8219 3.42035 38.315 7.82686C43.8079 12.908 41.8528 27.2634 41.8643 27.7528C40.7353 37.5688 34.0805 38.1911 32.8569 38.616C32.3339 38.7973 27.4798 40.1003 21.3848 39.6754Z" fill="white"/>
<path d="M23.9016 9.31934C23.1585 9.31934 23.1585 10.5277 23.9016 10.5378C29.6666 10.5841 34.4144 14.7771 34.4665 22.4684C34.4665 23.28 35.6053 23.2699 35.5956 22.4583H35.5937C35.5319 14.1709 30.3479 9.36566 23.9016 9.31934Z" fill="white"/>
<path d="M31.4847 21.1939C31.4673 21.9954 32.6041 22.0337 32.6137 21.2221C32.7083 16.6525 30.0082 12.8884 24.9341 12.4916C24.1911 12.4353 24.1139 13.6537 24.855 13.7101C29.2555 14.0585 31.5734 17.1922 31.4847 21.1939Z" fill="white"/>
<path d="M30.2687 26.3916C29.3153 25.8156 28.3445 26.1741 27.9431 26.74L27.1035 27.8739C26.677 28.4499 25.8799 28.3733 25.8799 28.3733C20.0628 26.7682 18.5071 20.4162 18.5071 20.4162C18.5071 20.4162 18.4357 19.5563 18.9684 19.0951L20.0184 18.1888C20.5433 17.7538 20.8753 16.7066 20.3407 15.6774C18.9125 12.9848 17.9532 12.0564 17.4649 11.3434C16.9515 10.6728 16.1795 10.5217 15.3766 10.9749H15.3593C13.6898 11.9939 11.8621 13.9011 12.4469 15.8647C13.4447 17.9351 15.2782 24.5348 21.1223 29.5213C23.8688 31.8796 28.2152 34.2963 30.0603 34.8542L30.0777 34.8824C31.8958 35.5148 33.6637 33.5331 34.6075 31.7386V31.7245C35.0263 30.8565 34.8873 30.0348 34.2755 29.4971C33.1908 28.3935 31.5541 27.175 30.2687 26.3916Z" fill="white"/>
<path d="M25.7293 16.9868C27.5841 17.0996 28.4835 18.1106 28.58 20.187C28.6147 20.9986 29.7438 20.9422 29.709 20.1306C29.5855 17.4198 28.2306 15.9094 25.7911 15.7684C25.048 15.7221 24.9785 16.9405 25.7293 16.9868Z" fill="white"/>
</g>
<defs>
<clipPath id="clip0">
<rect width="46.3207" height="48.3347" fill="white" transform="translate(0.312744 0.665527)"/>
</clipPath>
</defs>
</svg>
