<svg width="47" height="49" viewBox="0 0 47 49" fill="none" xmlns="http://www.w3.org/2000/svg">
<g clip-path="url(#clip0)">
<path d="M23.1661 0.665527H23.1546C10.3845 0.665527 0 11.5046 0 24.8329C0 30.1195 1.63281 35.0194 4.40915 38.9979L1.52279 47.9761L10.4251 45.0065C14.0873 47.5381 18.4559 49.0002 23.1661 49.0002C35.9362 49.0002 46.3207 38.1581 46.3207 24.8329C46.3207 11.5076 35.9362 0.665527 23.1661 0.665527ZM36.6426 34.7928C36.0838 36.4392 33.8662 37.8047 32.0974 38.2034C30.8872 38.4723 29.3065 38.6868 23.9854 36.3848C17.1792 33.4425 12.7961 26.2255 12.4545 25.7573C12.1273 25.289 9.70419 21.9358 9.70419 18.4678C9.70419 14.9998 11.392 13.3111 12.0723 12.5861C12.6311 11.9909 13.5546 11.7191 14.4405 11.7191C14.7271 11.7191 14.9848 11.7342 15.2164 11.7462C15.8967 11.7765 16.2383 11.8188 16.687 12.9395C17.2458 14.3442 18.6065 17.8122 18.7686 18.1687C18.9336 18.5252 19.0986 19.0085 18.867 19.4768C18.6499 19.9601 18.4588 20.1746 18.1172 20.5854C17.7756 20.9963 17.4513 21.3105 17.1097 21.7515C16.797 22.1352 16.4439 22.546 16.8376 23.2559C17.2313 23.9508 18.592 26.2678 20.5953 28.1287C23.1806 30.5303 25.2766 31.2976 26.0265 31.6239C26.5852 31.8656 27.2511 31.8082 27.6593 31.355C28.1775 30.772 28.8173 29.8053 29.4687 28.8537C29.9319 28.171 30.5167 28.0864 31.1304 28.3281C31.7557 28.5546 35.0648 30.2614 35.7451 30.6149C36.4255 30.9714 36.8742 31.1405 37.0392 31.4396C37.2013 31.7387 37.2013 33.1434 36.6426 34.7928Z" fill="white"/>
</g>
<defs>
<clipPath id="clip0">
<rect width="46.3207" height="48.3347" fill="white" transform="translate(0 0.665527)"/>
</clipPath>
</defs>
</svg>
