<svg width="176" height="73" xmlns="http://www.w3.org/2000/svg" version="1.1" xml:space="preserve">

 <g>
  <title>Layer 1</title>
  <g stroke="null" id="Слой_x0020_1">
   <metadata stroke="null" id="CorelCorpID_0Corel-Layer"/>
   <g stroke="null" id="_1789002714192">
    <path stroke="null" id="svg_1" fill-rule="nonzero" fill="#A3C626" d="m75.33706,35.96318c0,-4.5173 -0.87802,-8.82592 -2.40863,-12.82237c-0.40493,13.15438 -14.12002,23.33895 -22.17218,30.07868l20.15507,0c2.81735,-5.14611 4.42573,-11.01698 4.42573,-17.25632zm-14.57054,-28.9647c-6.38146,-4.84347 -14.38267,-7.75607 -23.0972,-7.75607c-20.80404,0 -37.66932,16.44128 -37.66932,36.72076c0,20.27933 16.86528,36.72015 37.66932,36.72015c9.52645,0 18.20076,-3.47467 24.8343,-9.16101l-27.27132,0l-0.08313,-7.80728c16.43195,-13.92559 26.50499,-23.34325 26.50499,-32.43983c0,-3.38071 -1.32097,-7.64689 -7.26547,-7.64689c-4.70715,0 -9.24803,2.65809 -8.4227,13.76504l-9.5774,0c-2.39506,-12.87788 4.7887,-23.10166 18.49416,-23.10166c2.12484,0 4.09036,0.24728 5.88378,0.70677z" class="fil0"/>
    <path stroke="null" id="svg_2" fill-rule="nonzero" fill="#434242" d="m110.27485,24.62249l8.90982,0c0.30461,-6.60641 -1.97908,-17.07547 -16.67614,-17.07547c-10.81461,0 -18.65869,6.31161 -18.65869,19.45122c0,1.78185 0.07556,10.98715 0.07556,16.70332c0,14.25529 10.12983,17.37242 18.65885,17.37242c5.10246,0 12.48908,-1.11414 15.91549,-4.75151l0,-22.71721l-16.75375,0l0,8.24079l7.46376,0l0,10.02248c-5.63611,1.85551 -15.91707,2.59843 -15.91707,-10.02248l0,-14.84781c0,-8.83469 4.18911,-11.87815 8.83347,-11.87815c4.79848,0 8.1487,2.37575 8.1487,9.5024zm66.27454,22.04811c0.38017,-20.34007 -23.53069,-13.58558 -23.30385,-24.94349c0.07572,-4.00798 2.74163,-6.60702 7.08359,-6.60702c4.64499,0 7.38457,2.6727 7.30885,9.65187l8.75791,0c0.22905,-6.31146 -1.29399,-17.07547 -15.76216,-17.07547c-8.9868,0 -16.37295,4.30662 -16.52628,13.88268c-0.38033,19.52335 23.68401,13.13961 23.30369,24.94395c-0.15333,4.82517 -3.73322,6.97763 -7.76837,6.97763c-4.72071,0 -8.52902,-2.67255 -7.76695,-10.6902l-8.83568,0c-0.98938,10.61654 3.80894,18.18976 16.52691,18.18976c10.737,0 16.82884,-5.79199 16.98233,-14.32972zm-40.23128,13.65985l-8.98475,0l0,-51.96625l8.98475,0l0,51.96625zm0,0l-8.98475,0l0,-51.96625l8.98475,0l0,51.96625z" class="fil1"/>
   </g>
  </g>
 </g>
</svg>