<svg width="212" height="88" xmlns="http://www.w3.org/2000/svg">

 <g>
  <title>Layer 1</title>
  <g stroke="null" id="svg_7">
   <path stroke="null" id="svg_1" fill="#EA4335" d="m91.83031,45.6992c0,9.31276 -7.28539,16.17518 -16.22623,16.17518s-16.22623,-6.86242 -16.22623,-16.17518c0,-9.3784 7.28539,-16.17518 16.22623,-16.17518s16.22623,6.79678 16.22623,16.17518zm-7.10308,0c0,-5.81956 -4.22247,-9.80137 -9.12315,-9.80137s-9.12315,3.98181 -9.12315,9.80137c0,5.76122 4.22247,9.80137 9.12315,9.80137s9.12315,-4.04744 9.12315,-9.80137z"/>
   <path stroke="null" id="svg_2" fill="#FBBC05" d="m126.8352,45.6992c0,9.31276 -7.28539,16.17518 -16.22623,16.17518s-16.22623,-6.86242 -16.22623,-16.17518c0,-9.3711 7.28539,-16.17518 16.22623,-16.17518s16.22623,6.79678 16.22623,16.17518zm-7.10308,0c0,-5.81956 -4.22247,-9.80137 -9.12315,-9.80137s-9.12315,3.98181 -9.12315,9.80137c0,5.76122 4.22247,9.80137 9.12315,9.80137s9.12315,-4.04744 9.12315,-9.80137z"/>
   <path stroke="null" id="svg_3" fill="#4285F4" d="m160.38156,30.50124l0,29.03948c0,11.94542 -7.04474,16.82423 -15.37298,16.82423c-7.83964,0 -12.55801,-5.24344 -14.33742,-9.53154l6.1842,-2.57432c1.1012,2.63266 3.79949,5.73934 8.14593,5.73934c5.33095,0 8.63454,-3.289 8.63454,-9.48049l0,-2.32637l-0.24795,0c-1.58981,1.96173 -4.65273,3.67551 -8.51786,3.67551c-8.08759,0 -15.49696,-7.04474 -15.49696,-16.10955c0,-9.13044 7.40937,-16.23352 15.49696,-16.23352c3.85783,0 6.92076,1.71378 8.51786,3.61717l0.24795,0l0,-2.63266l6.74574,0l0,-0.00729zm-6.24254,15.2563c0,-5.69559 -3.79949,-9.85971 -8.63454,-9.85971c-4.90069,0 -9.00647,4.16412 -9.00647,9.85971c0,5.63725 4.10578,9.74303 9.00647,9.74303c4.83505,0 8.63454,-4.10578 8.63454,-9.74303z"/>
   <path stroke="null" id="svg_4" fill="#34A853" d="m171.50291,13.48011l0,47.40246l-6.92805,0l0,-47.40246l6.92805,0z"/>
   <path stroke="null" id="svg_5" fill="#EA4335" d="m198.50044,51.02286l5.51327,3.67551c-1.77942,2.63266 -6.06752,7.16871 -13.47689,7.16871c-9.18879,0 -16.0512,-7.10308 -16.0512,-16.17518c0,-9.61905 6.92076,-16.17518 15.2563,-16.17518c8.39388,0 12.49967,6.6801 13.84152,10.28998l0.73656,1.83776l-21.62282,8.95542c1.65544,3.24525 4.22976,4.90069 7.83964,4.90069c3.61717,0 6.12586,-1.77942 7.96361,-4.47771zm-16.97008,-5.81956l14.45411,-6.00188c-0.7949,-2.02007 -3.1869,-3.42756 -6.00188,-3.42756c-3.60988,0 -8.63454,3.1869 -8.45222,9.42944z"/>
   <path stroke="null" id="svg_6" fill="#4285F4" d="m33.15335,41.49132l0,-6.86242l23.12511,0c0.22607,1.196 0.34276,2.61078 0.34276,4.14225c0,5.14864 -1.40749,11.51515 -5.94354,16.0512c-4.41208,4.59439 -10.04932,7.04474 -17.51703,7.04474c-13.84152,0 -25.48065,-11.27449 -25.48065,-25.11601c0,-13.84152 11.63913,-25.11601 25.48065,-25.11601c7.65732,0 13.11225,3.00459 17.21074,6.92076l-4.84234,4.84234c-2.93895,-2.75664 -6.92076,-4.90069 -12.37569,-4.90069c-10.10766,0 -18.01294,8.14593 -18.01294,18.2536c0,10.10766 7.90527,18.2536 18.01294,18.2536c6.55613,0 10.28998,-2.63266 12.68198,-5.02466c1.93985,-1.93985 3.21607,-4.71108 3.71927,-8.49598l-16.40125,0.00729z"/>
  </g>
 </g>
</svg>