<svg width="131" height="130" viewBox="0 0 131 130" fill="none" xmlns="http://www.w3.org/2000/svg">
<g clip-path="url(#clip0)">
<path d="M130.486 44.2991L105.821 1.90363C104.76 0.0800773 102.411 -0.539962 100.579 0.509687L86.3383 8.66871C84.5025 9.72039 83.8736 12.0495 84.9336 13.8712L85.2366 14.3918L13.8122 64.3709C12.19 65.5061 11.7077 67.6816 12.7002 69.3879L12.8368 69.6227L1.92084 75.8772C0.085306 76.9289 -0.543852 79.2579 0.516173 81.0797L8.73796 95.2127C9.7921 97.0253 12.136 97.6636 13.9805 96.6066L24.8962 90.3526L25.0326 90.587C26.0315 92.3039 28.1761 92.9613 29.9669 92.1396L52.0273 82.0177C53.085 83.5967 54.4175 84.979 55.9553 86.0994L41.3523 124.856C40.6101 126.826 41.6177 129.02 43.6029 129.757C45.5884 130.494 47.7995 129.494 48.542 127.524L63.05 89.0196C63.8495 89.141 64.6678 89.2052 65.5011 89.2052C66.3344 89.2052 67.1532 89.1423 67.9528 89.0209L82.4602 127.524C83.2022 129.494 85.4128 130.494 87.3993 129.757C89.3846 129.021 90.3921 126.826 89.6499 124.856L75.0472 86.0997C79.0601 83.177 81.6717 78.4655 81.6717 73.1584C81.6717 71.6149 81.4465 70.1237 81.0348 68.7102L109.296 55.7465L109.599 56.2667C110.651 58.0758 112.993 58.72 114.841 57.6607L129.082 49.5017C130.917 48.45 131.546 46.1209 130.486 44.2991ZM13.4665 88.1058L9.08234 80.5694L16.675 76.2192L21.0591 83.7554L13.4665 88.1058ZM65.5011 81.5878C60.8171 81.5878 57.0066 77.8061 57.0066 73.1584C57.0066 68.5101 60.8174 64.7287 65.5011 64.7287C70.1849 64.7287 73.9956 68.5104 73.9956 73.1584C73.9956 77.8064 70.1851 81.5878 65.5011 81.5878ZM77.1862 62.0835C74.24 59.0234 70.0925 57.1115 65.5011 57.1115C56.5847 57.1115 49.3308 64.3102 49.3308 73.1584C49.3308 73.7205 49.3607 74.2758 49.4178 74.823L29.9275 83.7655L21.1001 68.5916L89.0906 21.0154L105.443 49.1221L77.1862 62.0835ZM114.327 49.1596L93.4998 13.3609L101.093 9.01047L121.92 44.8092L114.327 49.1596Z" fill="black"/>
</g>
<defs>
<clipPath id="clip0">
<rect width="131" height="130" fill="white"/>
</clipPath>
</defs>
</svg>
