<svg width="178" height="97" xmlns="http://www.w3.org/2000/svg" xmlns:undefined="http://sodipodi.sourceforge.net/DTD/sodipodi-0.dtd" xmlns:undefined="http://www.inkscape.org/namespaces/inkscape" version="1.1">
 <metadata id="metadata26">image/svg+xmlyandex official logotype2008-08-25Art. Lebedev StudioPD-text-logoArt. Lebedev Studiohttps://yandex.ru/company/rules/logotype/ruyandextrademarkyandex official logotypehttps://yandex.ru/company/rules/logotype/world</metadata>

 <g>
  <title>Layer 1</title>
  <g stroke="null" data-name="LOGO" id="6c322349-0e2d-45c0-b018-1318df84bbc3">
   <g stroke="null" data-name="&lt;Группа&gt;" id="467390fb-e479-4223-bbac-f0546cb4ae27">
    <path stroke="null" fill="red"  d="m19.0277,54.29252l-10.01949,22.50272l-7.30946,0l11.00504,-24.06352c-5.17398,-2.62803 -8.62328,-7.3914 -8.62328,-16.17901c0,-12.3191 7.80206,-18.47868 17.08247,-18.47868l9.44449,0l0,58.72121l-6.32366,0l0,-22.50272l-5.25612,0zm5.25612,-30.88018l-3.36736,0c-5.09178,0 -10.01949,3.36716 -10.01949,13.14037c0,9.44449 4.51709,12.48319 10.01949,12.48319l3.36736,0l0,-25.62356z" class="ba6cca05-dfc5-41c5-843f-c63555d93f16" data-name="&lt;Составной контур&gt;" id="e3e00503-4570-4d4f-9c94-13248eafc32d"/>
    <path stroke="null"  d="m61.0768,35.40277l0,41.39247l-6.32387,0l0,-18.56082l-9.52674,0l0,18.56082l-6.4058,0l0,-41.39247l6.4058,0l0,17.57522l9.52674,0l0,-17.57522l6.32387,0zm32.93306,49.52319l-5.74897,0l0,-8.13073l-17.73956,0l0,8.13073l-5.74897,0l0,-13.3869l2.54614,0c3.77777,-8.78761 4.18838,-21.59977 4.18838,-32.6048l0,-3.53149l19.21801,0l0,36.1363l3.28497,0l0,13.3869zm-9.60888,-44.34897l-7.14513,0l0,0.73903c0,8.70547 -0.41066,21.43543 -3.85996,30.22304l11.00509,0l0,-30.96207zm27.26629,36.79293c-8.54114,0 -13.79725,-6.81641 -13.79725,-19.54592c0,-13.30491 3.69583,-22.99598 12.48344,-22.99598c6.89865,0 11.4157,5.17398 11.4157,19.21801l0,3.53144l-17.24701,0c0,9.36235 2.62803,14.29031 7.71982,14.29031c3.61368,0 6.48824,-1.64248 8.13073,-2.79242l1.47865,4.92745a16.30016,16.30016 0 0 1 -10.18407,3.36711zm-7.06299,-25.04882l10.59448,0c0,-7.06299 -1.14993,-12.23691 -4.84531,-12.23691c-3.94235,0 -5.33831,4.84551 -5.74917,12.23691zm30.14085,3.86041l0,20.61372l-6.40605,0l0,-41.39247l6.40605,0l0,19.13582l9.93709,-19.13582l6.48824,0l-10.26576,19.46448l11.74391,21.92798l-6.98079,0l-10.9227,-20.61372zm18.72471,-0.08214c0,-12.97649 5.01009,-21.27135 14.70116,-21.27135c3.69533,0 5.83086,0.9856 7.63768,2.13528l-0.90341,6.07739c-1.72468,-1.4784 -4.18838,-2.87436 -6.81646,-2.87436c-4.59924,0 -7.8842,5.17398 -7.8842,15.60432c0,10.34795 2.4637,16.26096 7.63768,16.26096a10.45913,10.45913 0 0 0 6.98079,-2.54589l1.47815,4.76362a12.53038,12.53038 0 0 1 -8.62328,3.12058c-8.8698,0 -14.20811,-7.14463 -14.20811,-21.27055z" data-name="&lt;Составной контур&gt;" id="426c2572-ff31-40d1-8641-2ae80a190106"/>
   </g>
  </g>
 </g>
</svg>